<svg xmlns="http://www.w3.org/2000/svg" viewBox="0 0 100 100" width="32" height="32">
  <defs>
    <radialGradient id="grad" cx="50%" cy="50%" r="50%" fx="50%" fy="50%">
      <stop offset="0%" style="stop-color:#6dbf40;stop-opacity:1" />
      <stop offset="100%" style="stop-color:#3e8e2b;stop-opacity:1" />
    </radialGradient>
  </defs>
  <path d="M 50,2 A 23,23 0 0,1 73,25 A 23,23 0 0,1 50,48 A 23,23 0 0,1 27,25 A 23,23 0 0,1 50,2 Z" transform="rotate(45 50 50)" fill="url(#grad)"/>
  <path d="M 50,2 A 23,23 0 0,1 73,25 A 23,23 0 0,1 50,48 A 23,23 0 0,1 27,25 A 23,23 0 0,1 50,2 Z" transform="rotate(135 50 50)" fill="url(#grad)"/>
  <path d="M 50,2 A 23,23 0 0,1 73,25 A 23,23 0 0,1 50,48 A 23,23 0 0,1 27,25 A 23,23 0 0,1 50,2 Z" transform="rotate(225 50 50)" fill="url(#grad)"/>
  <path d="M 50,2 A 23,23 0 0,1 73,25 A 23,23 0 0,1 50,48 A 23,23 0 0,1 27,25 A 23,23 0 0,1 50,2 Z" transform="rotate(315 50 50)" fill="url(#grad)"/>
  <path d="M 48,48 L 52,48 L 52,98 A 2,2 0 0,1 50,100 A 2,2 0 0,1 48,98 L 48,48 Z" fill="#3e8e2b"/>
</svg>